<?xml version="1.0" standalone="no"?>
<!DOCTYPE svg PUBLIC "-//W3C//DTD SVG 20010904//EN"
 "http://www.w3.org/TR/2001/REC-SVG-20010904/DTD/svg10.dtd">
<svg version="1.0" xmlns="http://www.w3.org/2000/svg"
 width="260.000000pt" height="260.000000pt" viewBox="0 0 260.000000 260.000000"
 preserveAspectRatio="xMidYMid meet">
<metadata>
Created by potrace 1.11, written by Peter Selinger 2001-2013
</metadata>
<g transform="translate(0.000000,260.000000) scale(0.100000,-0.100000)"
fill="#000000" stroke="none">
<path d="M2345 2075 c-16 -8 -89 -39 -161 -69 -181 -76 -240 -104 -469 -217
-206 -102 -255 -129 -410 -219 -49 -29 -105 -61 -123 -72 -62 -35 -347 -217
-377 -241 -5 -4 -50 -37 -100 -72 -49 -35 -94 -68 -100 -72 -5 -4 -24 -19 -41
-33 -17 -14 -48 -38 -69 -55 -150 -116 -485 -417 -485 -435 0 -11 651 -9 673
2 10 5 51 42 92 82 40 39 105 101 145 136 40 36 78 70 84 75 23 21 84 71 126
105 24 19 51 42 59 50 9 9 34 29 56 45 22 16 42 31 45 34 5 6 32 26 166 125
23 17 52 38 64 46 12 8 32 22 44 31 180 137 694 440 959 566 l77 37 0 83 0 83
-112 -1 c-75 0 -123 -5 -143 -14z"/>
<path d="M61 1974 c8 -9 30 -27 49 -40 36 -23 281 -203 313 -229 9 -8 20 -15
24 -15 3 0 13 -7 22 -15 9 -9 55 -44 102 -78 48 -34 97 -70 110 -80 13 -9 52
-38 87 -63 l62 -46 83 54 c45 30 126 81 180 113 53 31 97 61 97 65 0 3 -107
83 -238 177 l-237 170 -334 2 c-308 1 -332 0 -320 -15z"/>
<path d="M1548 1173 c-73 -53 -135 -100 -138 -103 -3 -3 -20 -16 -38 -29 l-33
-23 30 -22 c126 -90 226 -163 237 -173 7 -7 15 -13 18 -13 4 0 139 -98 196
-143 8 -7 40 -29 70 -49 l55 -36 328 0 c180 1 327 4 327 7 -1 3 -66 53 -146
111 -81 58 -151 110 -158 115 -17 16 -87 67 -127 95 -20 14 -50 35 -65 48 -16
12 -118 87 -226 167 l-198 144 -132 -96z"/>
</g>
</svg>
